<svg width="1755" height="1547" xmlns="http://www.w3.org/2000/svg" xmlns:xlink="http://www.w3.org/1999/xlink" xml:space="preserve" overflow="hidden"><defs><clipPath id="clip0"><rect x="1195" y="487" width="1755" height="1547"/></clipPath></defs><g clip-path="url(#clip0)" transform="translate(-1195 -487)"><path d="M1503.18 1269C1571.24 1269 1629.16 1284.43 1676.94 1315.29 1724.71 1346.15 1759.52 1385.28 1781.38 1432.66L1651.18 1519.64C1634.94 1489.71 1613.71 1466.64 1587.48 1450.43 1561.25 1434.22 1532.53 1426.12 1501.3 1426.12 1471.95 1426.12 1447.13 1432.51 1426.84 1445.29 1406.54 1458.07 1396.39 1474.12 1396.39 1493.45 1396.39 1506.54 1400.3 1517.3 1408.1 1525.71 1415.91 1534.13 1429.49 1542.39 1448.85 1550.5 1468.21 1558.6 1496.93 1567.64 1535.03 1577.62 1584.36 1590.09 1625.89 1603.34 1659.61 1617.36 1693.33 1631.39 1722.99 1653.37 1748.59 1683.3 1774.2 1713.22 1787 1753.13 1787 1803 1787 1849.14 1774.51 1889.67 1749.53 1924.58 1724.55 1959.5 1689.74 1986.46 1645.09 2005.48 1600.44 2024.49 1549.39 2034 1491.94 2034 1420.75 2034 1359.55 2018.41 1308.34 1987.24 1257.13 1956.07 1219.35 1913.98 1195 1860.99L1330.82 1770.27C1365.79 1841.35 1419.81 1876.89 1492.87 1876.89 1528.47 1876.89 1556.73 1871.12 1577.65 1859.58 1598.57 1848.05 1609.03 1832.31 1609.03 1812.36 1609.03 1798.64 1605.28 1787.11 1597.78 1777.75 1590.29 1768.4 1576.71 1759.52 1557.04 1751.1 1537.37 1742.68 1508.8 1733.49 1471.33 1723.51 1420.75 1709.79 1378.75 1695.92 1345.34 1681.89 1311.93 1667.87 1282.43 1645.73 1256.82 1615.49 1231.22 1585.26 1218.42 1545.51 1218.42 1496.26 1218.42 1452.61 1231.06 1413.49 1256.35 1378.89 1281.65 1344.28 1315.99 1317.32 1359.39 1297.99 1402.79 1278.66 1450.72 1269 1503.18 1269Z" fill="#1D1D1F" fill-rule="evenodd"/><path d="M1195 487 1485.98 487C1567.47 487 1631.78 508.085 1678.91 550.254 1726.04 592.423 1749.6 650.823 1749.6 725.453 1749.6 775.207 1739.26 818.134 1718.59 854.236 1697.91 890.338 1668.42 917.793 1630.11 936.603L1787 1206 1588.15 1206 1462.27 964.816 1364.66 964.816 1364.66 1206 1195 1206 1195 487ZM1364.66 639.901 1364.66 811.005 1461.35 811.005C1497.23 811.005 1525.36 803.876 1545.73 789.617 1566.1 775.358 1576.29 753.97 1576.29 725.453 1576.29 696.936 1566.1 675.548 1545.73 661.289 1525.36 647.031 1497.23 639.901 1461.35 639.901L1364.66 639.901Z" fill="#1D1D1F" fill-rule="evenodd"/><path d="M1398 487 1789.92 487 2168.12 1538.57 2179.88 1538.57 2558.08 487 2950 487 2360.16 2034 1987.84 2034 1398 487Z" fill="#1D1D1F" fill-rule="evenodd"/></g></svg>