<svg width="1299" height="1298" xmlns="http://www.w3.org/2000/svg" xmlns:xlink="http://www.w3.org/1999/xlink" xml:space="preserve" overflow="hidden"><g transform="translate(-1551 -589)"><path d="M1553.5 807.004C1553.5 687.985 1649.98 591.5 1769 591.5L2632 591.5C2751.02 591.5 2847.5 687.985 2847.5 807.004L2847.5 1669C2847.5 1788.02 2751.02 1884.5 2632 1884.5L1769 1884.5C1649.98 1884.5 1553.5 1788.02 1553.5 1669Z" stroke="#F5F5F7" stroke-width="4.58333" stroke-miterlimit="8" fill="#F5F5F7" fill-rule="evenodd"/><path d="M2507.44 691C2571.36 691 2625.76 705.523 2670.63 734.57 2715.5 763.616 2748.19 800.437 2768.72 845.034L2646.44 926.892C2631.19 898.726 2611.25 877.015 2586.61 861.758 2561.98 846.501 2535 838.873 2505.68 838.873 2478.11 838.873 2454.8 844.887 2435.74 856.917 2416.68 868.946 2407.15 884.056 2407.15 902.247 2407.15 914.57 2410.81 924.692 2418.14 932.614 2425.47 940.535 2438.23 948.31 2456.41 955.939 2474.59 963.567 2501.57 972.076 2537.35 981.465 2583.68 993.201 2622.68 1005.67 2654.35 1018.87 2686.03 1032.08 2713.88 1052.76 2737.93 1080.93 2761.98 1109.09 2774 1146.65 2774 1193.59 2774 1237.01 2762.27 1275.16 2738.81 1308.02 2715.35 1340.88 2682.65 1366.26 2640.72 1384.15 2598.78 1402.05 2550.84 1411 2496.88 1411 2430.02 1411 2372.54 1396.33 2324.45 1366.99 2276.36 1337.65 2240.87 1298.04 2218 1248.16L2345.56 1162.78C2378.41 1229.68 2429.14 1263.13 2497.76 1263.13 2531.19 1263.13 2557.73 1257.7 2577.38 1246.84 2597.02 1235.99 2606.85 1221.17 2606.85 1202.39 2606.85 1189.48 2603.33 1178.63 2596.29 1169.83 2589.25 1161.02 2576.5 1152.66 2558.02 1144.74 2539.55 1136.82 2512.72 1128.16 2477.53 1118.78 2430.02 1105.87 2390.58 1092.81 2359.2 1079.61 2327.82 1066.4 2300.11 1045.57 2276.06 1017.11 2252.02 988.653 2239.99 951.245 2239.99 904.887 2239.99 863.812 2251.87 826.99 2275.62 794.423 2299.38 761.856 2331.63 736.477 2372.4 718.286 2413.16 700.095 2458.17 691 2507.44 691Z" fill="#1D1D1F" fill-rule="evenodd"/><path d="M1626 691 1916.98 691C1998.47 691 2062.78 712.114 2109.91 754.342 2157.04 796.57 2180.6 855.05 2180.6 929.785 2180.6 979.607 2170.26 1022.59 2149.59 1058.75 2128.91 1094.9 2099.42 1122.39 2061.11 1141.23L2218 1411 2019.15 1411 1893.27 1169.48 1795.66 1169.48 1795.66 1411 1626 1411 1626 691ZM1795.66 844.114 1795.66 1015.46 1892.35 1015.46C1928.23 1015.46 1956.36 1008.32 1976.73 994.038 1997.1 979.76 2007.29 958.342 2007.29 929.785 2007.29 901.228 1997.1 879.81 1976.73 865.532 1956.36 851.253 1928.23 844.114 1892.35 844.114L1795.66 844.114Z" fill="#1D1D1F" fill-rule="evenodd"/><path d="M1935.08 1411.5C1948.77 1411.5 1959.6 1415.48 1967.56 1423.44 1975.52 1431.4 1979.5 1442.09 1979.5 1455.5 1979.5 1468.91 1975.52 1479.6 1967.56 1487.56 1959.6 1495.52 1948.77 1499.5 1935.08 1499.5 1921.67 1499.5 1911.06 1495.52 1903.23 1487.56 1895.41 1479.6 1891.5 1468.91 1891.5 1455.5 1891.5 1442.09 1895.41 1431.4 1903.23 1423.44 1911.06 1415.48 1921.67 1411.5 1935.08 1411.5Z" stroke="#000000" stroke-width="4.58333" stroke-miterlimit="8" fill="#1D1D1F" fill-rule="evenodd"/><path d="M2184.09 1446.5 2259.5 1446.5 2259.5 1778.61 2184.09 1778.61 2184.09 1749.19 2181.57 1749.19C2174.87 1760.4 2166.35 1769.09 2156.02 1775.25 2145.68 1781.42 2134.23 1784.5 2121.66 1784.5 2100.43 1784.5 2081.86 1779.03 2065.94 1768.1 2050.02 1757.17 2037.8 1741.48 2029.28 1721.02 2020.76 1700.56 2016.5 1676.6 2016.5 1649.13 2016.5 1622.51 2020.62 1599.39 2028.86 1579.77 2037.1 1560.15 2048.83 1545.01 2064.05 1534.36 2079.28 1523.71 2097.08 1518.39 2117.47 1518.39 2131.44 1518.39 2143.87 1521.47 2154.76 1527.64 2165.65 1533.8 2174.59 1542.49 2181.57 1553.7L2184.09 1553.7 2184.09 1446.5ZM2138.84 1589.01C2124.87 1589.01 2113.84 1594.62 2105.74 1605.83 2097.64 1617.04 2093.59 1632.32 2093.59 1651.65 2093.59 1670.71 2097.78 1685.85 2106.16 1697.06 2114.54 1708.27 2125.99 1713.87 2140.51 1713.87 2154.48 1713.87 2165.51 1708.27 2173.61 1697.06 2181.71 1685.85 2185.76 1670.71 2185.76 1651.65 2185.76 1632.32 2181.57 1617.04 2173.19 1605.83 2164.81 1594.62 2153.36 1589.01 2138.84 1589.01Z" stroke="#000000" stroke-width="4.58333" stroke-miterlimit="8" fill="#1D1D1F" fill-rule="evenodd"/><path d="M2419.86 1518.5C2442.57 1518.5 2462.68 1523.19 2480.21 1532.58 2497.73 1541.96 2511.32 1555.41 2520.99 1572.92 2530.66 1590.43 2535.5 1610.67 2535.5 1633.64 2535.5 1649.33 2533.54 1664.18 2529.61 1678.18L2376.55 1678.18C2381.32 1706.2 2397.02 1720.21 2423.65 1720.21 2442.99 1720.21 2457.85 1709.42 2468.22 1687.85L2524.99 1725.67C2517.7 1742.2 2505.36 1756.13 2487.98 1767.48 2470.6 1778.83 2448.88 1784.5 2422.81 1784.5 2398.14 1784.5 2376.34 1779.18 2357.42 1768.53 2338.5 1757.89 2323.78 1742.76 2313.27 1723.15 2302.76 1703.54 2297.5 1680.57 2297.5 1654.23 2297.5 1626.78 2302.62 1602.82 2312.85 1582.37 2323.08 1561.92 2337.45 1546.16 2355.95 1535.1 2374.45 1524.03 2395.76 1518.5 2419.86 1518.5ZM2419.86 1579.85C2398.56 1579.85 2384.68 1593.16 2378.24 1619.77L2458.55 1619.77C2458.55 1607.73 2455.12 1598.06 2448.25 1590.78 2441.38 1583.49 2431.92 1579.85 2419.86 1579.85Z" stroke="#000000" stroke-width="4.58333" stroke-miterlimit="8" fill="#1D1D1F" fill-rule="evenodd"/><path d="M2683 1518.5C2708.2 1518.5 2730.12 1523.89 2748.74 1534.68 2767.36 1545.46 2781.65 1560.87 2791.59 1580.9 2801.53 1600.93 2806.5 1624.4 2806.5 1651.29 2806.5 1678.46 2801.53 1702.07 2791.59 1722.1 2781.65 1742.13 2767.36 1757.54 2748.74 1768.32 2730.12 1779.11 2708.2 1784.5 2683 1784.5 2657.8 1784.5 2635.88 1779.11 2617.26 1768.32 2598.64 1757.54 2584.35 1742.13 2574.41 1722.1 2564.47 1702.07 2559.5 1678.46 2559.5 1651.29 2559.5 1624.4 2564.47 1600.93 2574.41 1580.9 2584.35 1560.87 2598.64 1545.46 2617.26 1534.68 2635.88 1523.89 2657.8 1518.5 2683 1518.5ZM2683 1589.94C2668.72 1589.94 2657.45 1595.4 2649.18 1606.33 2640.92 1617.25 2636.79 1632.24 2636.79 1651.29 2636.79 1670.34 2640.92 1685.4 2649.18 1696.46 2657.45 1707.53 2668.72 1713.06 2683 1713.06 2697.28 1713.06 2708.55 1707.53 2716.82 1696.46 2725.08 1685.4 2729.21 1670.34 2729.21 1651.29 2729.21 1632.24 2725.08 1617.25 2716.82 1606.33 2708.55 1595.4 2697.28 1589.94 2683 1589.94Z" stroke="#000000" stroke-width="4.58333" stroke-miterlimit="8" fill="#1D1D1F" fill-rule="evenodd"/><path d="M1594.5 1524.5 1677.19 1524.5 1730.08 1690.75 1732.6 1690.75 1783.81 1524.5 1866.5 1524.5 1768.28 1778.5 1691.04 1778.5 1594.5 1524.5Z" stroke="#000000" stroke-width="4.58333" stroke-miterlimit="8" fill="#1D1D1F" fill-rule="evenodd"/><path d="M1897.5 1524.5 1972.5 1524.5 1972.5 1778.5 1897.5 1778.5 1897.5 1524.5Z" stroke="#000000" stroke-width="4.58333" stroke-miterlimit="8" fill="#1D1D1F" fill-rule="evenodd"/></g></svg>