<svg width="2140" height="1071" xmlns="http://www.w3.org/2000/svg" xmlns:xlink="http://www.w3.org/1999/xlink" xml:space="preserve" overflow="hidden"><defs><clipPath id="clip0"><rect x="1195" y="702" width="2140" height="1071"/></clipPath></defs><g clip-path="url(#clip0)" transform="translate(-1195 -702)"><path d="M2216.99 702C2311.96 702 2392.78 723.603 2459.43 766.81 2526.09 810.016 2574.66 864.788 2605.16 931.126L2423.49 1052.89C2400.84 1010.99 2371.21 978.697 2334.62 956.002 2298.02 933.308 2257.94 921.961 2214.38 921.961 2173.42 921.961 2138.79 930.907 2110.47 948.801 2082.16 966.695 2068 989.171 2068 1016.23 2068 1034.56 2073.44 1049.62 2084.33 1061.4 2095.22 1073.18 2114.18 1084.75 2141.19 1096.1 2168.2 1107.44 2208.28 1120.1 2261.43 1134.07 2330.26 1151.52 2388.2 1170.07 2435.25 1189.71 2482.3 1209.35 2523.69 1240.12 2559.41 1282.02 2595.14 1323.91 2613 1379.78 2613 1449.61 2613 1514.2 2595.57 1570.93 2560.72 1619.81 2525.87 1668.69 2477.29 1706.44 2415 1733.07 2352.7 1759.69 2281.47 1773 2201.31 1773 2101.98 1773 2016.59 1751.18 1945.14 1707.54 1873.7 1663.89 1820.98 1604.97 1787 1530.78L1976.51 1403.78C2025.3 1503.29 2100.67 1553.04 2202.61 1553.04 2252.28 1553.04 2291.7 1544.97 2320.89 1528.82 2350.08 1512.67 2364.68 1490.63 2364.68 1462.7 2364.68 1443.5 2359.45 1427.35 2348.99 1414.25 2338.54 1401.16 2319.59 1388.72 2292.14 1376.94 2264.69 1365.16 2224.83 1352.28 2172.55 1338.32 2101.98 1319.11 2043.38 1299.69 1996.77 1280.05 1950.15 1260.41 1908.98 1229.43 1873.26 1187.09 1837.54 1144.76 1819.67 1089.11 1819.67 1020.16 1819.67 959.057 1837.32 904.285 1872.61 855.842 1907.89 807.398 1955.82 769.647 2016.37 742.588 2076.93 715.529 2143.8 702 2216.99 702Z" fill="#F5F5F7" fill-rule="evenodd"/><path d="M1195 702 1485.98 702C1567.47 702 1631.78 723.114 1678.91 765.342 1726.04 807.57 1749.6 866.05 1749.6 940.785 1749.6 990.607 1739.26 1033.59 1718.59 1069.75 1697.91 1105.9 1668.42 1133.39 1630.11 1152.23L1787 1422 1588.15 1422 1462.27 1180.48 1364.66 1180.48 1364.66 1422 1195 1422 1195 702ZM1364.66 855.114 1364.66 1026.46 1461.35 1026.46C1497.23 1026.46 1525.36 1019.32 1545.73 1005.04 1566.1 990.76 1576.29 969.342 1576.29 940.785 1576.29 912.228 1566.1 890.81 1545.73 876.532 1525.36 862.253 1497.23 855.114 1461.35 855.114L1364.66 855.114Z" fill="#F5F5F7" fill-rule="evenodd"/><path d="M2613 1053 2795.32 1053 2971.26 1542.42 2976.73 1542.42 3152.68 1053 3335 1053 3060.6 1773 2887.4 1773 2613 1053Z" fill="#F5F5F7" fill-rule="evenodd"/></g></svg>